<svg xmlns="http://www.w3.org/2000/svg" width="900" height="230" viewBox="0 0 900 230">

  <rect width="900" height="230" fill="#0A0E1A"/>

  <!-- grid lines subtle -->
  <line x1="0" y1="40"  x2="900" y2="40"  stroke="#111827" stroke-width="1"/>
  <line x1="0" y1="80"  x2="900" y2="80"  stroke="#111827" stroke-width="1"/>
  <line x1="0" y1="120" x2="900" y2="120" stroke="#111827" stroke-width="1"/>
  <line x1="0" y1="160" x2="900" y2="160" stroke="#111827" stroke-width="1"/>
  <line x1="300" y1="0" x2="300" y2="230" stroke="#111827" stroke-width="1"/>
  <line x1="600" y1="0" x2="600" y2="230" stroke="#111827" stroke-width="1"/>

  <!-- top accent bar -->
  <rect x="0"   y="0" width="300" height="6" fill="#00FF94"/>
  <rect x="300" y="0" width="300" height="6" fill="#7B61FF"/>
  <rect x="600" y="0" width="300" height="6" fill="#FF4D6D"/>

  <!-- left accent bar -->
  <rect x="0" y="0" width="7" height="230" fill="#00FF94"/>

  <!-- bottom border -->
  <rect x="0" y="224" width="900" height="6" fill="#7B61FF"/>

  <!-- tag top-left -->
  <rect x="22" y="16" width="115" height="26" fill="#00FF94"/>
  <text x="29" y="34" font-family="'Courier New', monospace" font-size="15" font-weight="700" fill="#0A0E1A">JAYE.DEV</text>

  <!-- right: cybersec tag -->
  <rect x="800" y="14" width="86" height="26" fill="#7B61FF"/>
  <text x="808" y="32" font-family="'Courier New', monospace" font-size="14" font-weight="700" fill="#FFFFFF">SEC ▲</text>

  <!-- name -->
  <text x="22" y="118" font-family="'Courier New', monospace" font-size="68" font-weight="900" fill="#FFFFFF" letter-spacing="-2">JEPHTE</text>
  <text x="22" y="185" font-family="'Courier New', monospace" font-size="68" font-weight="900" fill="#00FF94" letter-spacing="-2">AHIFFON</text>

  <!-- right panel -->
  <text x="635" y="76"  font-family="'Courier New', monospace" font-size="12" fill="#4B5563">ALIAS</text>
  <text x="635" y="102" font-family="'Courier New', monospace" font-size="28" font-weight="700" fill="#00FF94">JAYE</text>

  <text x="635" y="128" font-family="'Courier New', monospace" font-size="12" fill="#4B5563">DOMAINES</text>
  <text x="635" y="150" font-family="'Courier New', monospace" font-size="15" fill="#FFFFFF">Dev Web · Cybersec</text>

  <text x="635" y="172" font-family="'Courier New', monospace" font-size="12" fill="#4B5563">LOCALISATION</text>
  <text x="635" y="194" font-family="'Courier New', monospace" font-size="15" font-weight="700" fill="#FFFFFF">BÉNIN — AFRIQUE</text>

  <text x="635" y="218" font-family="'Courier New', monospace" font-size="14" fill="#00FF94">● DISPONIBLE</text>
</svg>
